/* XPM */
static char *_54d81cf73314465c6806d16117a2518J73gMOxeVQsvPu1T[] = {
/* columns rows colors chars-per-pixel */
"91 64 256 2 ",
"   c #191739",
".  c #111132",
"X  c #25193B",
"o  c #260F34",
"O  c #19233C",
"+  c #26233A",
"@  c #38263A",
"#  c #1D1542",
"$  c #1D1B43",
"%  c #191A4A",
"&  c #191B58",
"*  c #11144C",
"=  c #231B44",
"-  c #241D4B",
";  c #291A47",
":  c #261B55",
">  c #331A4C",
",  c #1A2549",
"<  c #1B2658",
"1  c #1B3559",
"2  c #112955",
"3  c #242244",
"4  c #2A2345",
"5  c #25224A",
"6  c #2B244D",
"7  c #282A4A",
"8  c #34274C",
"9  c #29334A",
"0  c #38334A",
"q  c #232453",
"w  c #2C2452",
"e  c #2D2A53",
"r  c #2B2C5C",
"t  c #272859",
"y  c #322453",
"u  c #322C55",
"i  c #342D5A",
"p  c #392759",
"a  c #293459",
"s  c #343253",
"d  c #34325B",
"f  c #3A345D",
"g  c #39395A",
"h  c #151B68",
"j  c #2B1D65",
"k  c #192866",
"l  c #193569",
"z  c #0C3379",
"x  c #193879",
"c  c #0F2C71",
"v  c #282A66",
"b  c #372C66",
"n  c #283767",
"m  c #343563",
"M  c #3C3463",
"N  c #3C3B63",
"B  c #3B3C6B",
"V  c #363868",
"C  c #272C76",
"Z  c #283977",
"A  c #373A75",
"S  c #352C74",
"D  c #44395B",
"F  c #432B57",
"G  c #433D65",
"H  c #443D6B",
"J  c #463769",
"K  c #463A76",
"L  c #523C75",
"P  c #442B67",
"I  c #431A56",
"U  c #32445B",
"Y  c #1B4579",
"T  c #134975",
"R  c #28436A",
"E  c #3B4264",
"W  c #3C436B",
"Q  c #364569",
"!  c #264578",
"~  c #3C4473",
"^  c #374878",
"/  c #3A5579",
"(  c #2C5578",
")  c #3A637A",
"_  c #1C465E",
"`  c #43436B",
"'  c #444B6C",
"]  c #49476A",
"[  c #434473",
"{  c #4B4474",
"}  c #434B73",
"|  c #4B4C74",
" . c #4C457B",
".. c #444C7B",
"X. c #4B4C7B",
"o. c #44447B",
"O. c #524C75",
"+. c #534D7C",
"@. c #564677",
"#. c #4B5275",
"$. c #44527B",
"%. c #4C527B",
"&. c #475779",
"*. c #53537C",
"=. c #58557B",
"-. c #4A4D6B",
";. c #544E71",
":. c #173789",
">. c #183697",
",. c #0F2E89",
"<. c #273B87",
"1. c #2C348B",
"2. c #1C2DAB",
"3. c #1D299E",
"4. c #4A3E8F",
"5. c #184789",
"6. c #1A5489",
"7. c #194998",
"8. c #1B5695",
"9. c #0D4D98",
"0. c #274888",
"q. c #384886",
"w. c #285789",
"e. c #395688",
"r. c #264A97",
"t. c #384B97",
"y. c #275798",
"u. c #385897",
"i. c #1A6A95",
"p. c #286599",
"a. c #376699",
"s. c #346C92",
"d. c #174AA4",
"f. c #1858A6",
"g. c #144FB2",
"h. c #2958A6",
"j. c #375AA4",
"k. c #2558B6",
"l. c #2A48AC",
"z. c #1B6EAF",
"x. c #2866A5",
"c. c #386AA7",
"v. c #2974AA",
"b. c #3776A8",
"n. c #2A69B6",
"m. c #366BB7",
"M. c #2B7AB8",
"N. c #3878B5",
"B. c #484A85",
"V. c #564985",
"C. c #445383",
"Z. c #4C5482",
"A. c #4B5B83",
"S. c #475989",
"D. c #545483",
"F. c #5A5383",
"G. c #535A84",
"H. c #5B5B83",
"J. c #53548B",
"K. c #535B8B",
"L. c #5C5C8B",
"P. c #5A568C",
"I. c #485A96",
"U. c #565B96",
"Y. c #494D96",
"T. c #635A89",
"R. c #635997",
"E. c #6F5994",
"W. c #49648B",
"Q. c #57638B",
"!. c #486698",
"~. c #5A6394",
"^. c #576899",
"/. c #48769B",
"(. c #577699",
"). c #47748D",
"_. c #656798",
"`. c #65749B",
"'. c #6D6A94",
"]. c #485BA4",
"[. c #565BA7",
"{. c #6958A3",
"}. c #4968A6",
"|. c #5768A5",
" X c #4877A9",
".X c #5876A7",
"XX c #486AB6",
"oX c #4778B7",
"OX c #587AB7",
"+X c #5569B3",
"@X c #6768A5",
"#X c #756BA7",
"$X c #6776A9",
"%X c #7577A7",
"&X c #6878B6",
"*X c #7878B4",
"=X c #6A6CB2",
"-X c #164CCC",
";X c #2552CC",
":X c #1A71CE",
">X c #297AC8",
",X c #3779C6",
"<X c #2B6ED0",
"1X c #2D7FE3",
"2X c #497AC8",
"3X c #6879C1",
"4X c #8474AC",
"5X c #2787B8",
"6X c #3785B7",
"7X c #2F90B3",
"8X c #2886A7",
"9X c #4983A9",
"0X c #5585A9",
"qX c #4886B9",
"wX c #5886B9",
"eX c #4A96BB",
"rX c #5793B7",
"tX c #6885B9",
"yX c #7488B3",
"uX c #5792AD",
"iX c #1B86D0",
"pX c #3986C7",
"aX c #3997C9",
"sX c #3586D4",
"dX c #3999D7",
"fX c #2990CD",
"gX c #3AA6D7",
"hX c #30ADD2",
"jX c #2B91ED",
"kX c #38A9E5",
"lX c #37B6E7",
"zX c #2AAEE9",
"xX c #4889C6",
"cX c #5889C6",
"vX c #4795C7",
"bX c #5997C6",
"nX c #4898D2",
"mX c #5598D5",
"MX c #518AD4",
"NX c #6489C8",
"BX c #6B97C9",
"VX c #47A5CB",
"CX c #57A6C7",
"ZX c #48A7D7",
"AX c #53A8D9",
"SX c #4DB7D6",
"DX c #6DABCD",
"FX c #4BB3E8",
"GX c #60A7E4",
"HX c #37C9ED",
"JX c #2ECFEA",
"KX c #4CCDF3",
"LX c #5BDEF1",
"PX c #858AB7",
"IX c #8C9ED1",
"UX c #88D5FF",
/* pixels */
"X X =   ; ;   3.&   4 , X 7 . 1.l.: > v = Y 9.8 n 8.s u G M M B a G ` D + X ; O 3 2 c.2 g H H g E W u.u.A D U P B x x m M 0 g d u r s n 9.t.n q 7 t k 0.j > 3 X ; >.k , o : $ = # # = ",
"# $ : ; ;   . 3.* X , 5 I e * ,.r.+ 9 & :.sXg.= V 8.A V i D g ] J N e 1 y.x.h.c.x.2XkXn.: ' ` { ` n a.u.H N M M E a t 1.v g 8 P J N p Z 0.r.! 4 @ u z >.c 7 7 t . >.v $ X ; o =   # o ",
"& # ; $ = # . g.h o < O : : 2 l.%   l z.>X<Xm.C i p.h.B H G U { @.s   Y N.].qX+XXX^.[.pX8.- U A H y.c.B.] ` J E { ] 5 >.k Q E V f 9 c h.V t.z ; % < ,.f.:.< $ > , >.t % > 6 X - = = # ",
"-   #   . h ,.;Xy.h : I w $ 9.g.l a.n.t.o.B t.f.& q.n.M H E V B.s ; T 6XU.#X'.=X#X$XT.^.wXu.m 4 n  Xu.H ] H H } B D b x 5.b p e s ; 9.t.f q.g.z :.0.! n v ,.c . h r.q $ % $ X = = = = ",
"* * * * ,.3.1.& x y.z . y * :XfXx.q.Y.~ ] @.+.c.y.k m.a } { @.Q O R v.^.4X&X*X*X*X$X0X$XU.2Xa.4 r. XZ.[ } ] -. .o./ &.t n.p.x 1 k 0.m.S d Z >Xu.n A p @ q <.>.:.,.>.4 e w % ; = - = = ",
">.h h 2.,.* 5 : q x f.q & 9.n.A A ^ P a a r m V.2Xc.9.0.i =.} u x M.].#X&X=X.X~.T.Q.R._.=X|.qX7XM.S.X.} | { O.X.{ ..9 S fXjX6Xc.m.fXq.a V q.f.v J r u f r q v 0.:Xk.o ; % - ; - = ; - ",
"< ;X:X-X3.h , ; r t h.C h <Xq.K Q F f a d ' H V Y.oXM.n.Z , R n N.}.[._.K.Z.@.C...Q ..V.J._.R.nXxXI.C.%.F.F.F.*.G.K e }.kXXXR.B.0.m.<.a g <.7.X.J a 7 : r i 8 r 5.9.# = y % + ; # # # ",
",.:Xz.5.1.1.,.,.l j 5.z.5.,XH ~ V g g g d K n N B Z.vXjXr.R n M.N.U.|.!. .` ].2XI.Y.C.X...C.R.L.xXOX$.' ] P r g V a v.sXjX^.J.{ ' Y. Xm g Z t.A D e u f d s ; m # d.2 * # . . # .     ",
"r.Z S b P K Z q.h.0.7.iXzXu.V.A m H V m N N ` B V e./.vXhXZ M.aX}.|.(. .X.a.OX+XJ.I.].I.U.$.#.T.L. XM.0.! ( e.w.v.aXnXkXdXI.J.Q ] B.x.0.B Z t.^ H g a i b i t 9 > ,.:X9.1.,.h k c ,.,.",
"C n r i b M A ^ 1.w.j.FXJXr.B.Q W m V Q W M { n e.W.B.I.AXlXlXOX&X.X.X..o.wXrX}.I.I.}.}..XS...A.U.n.FXpXqXqXcX2XwXwXtXbXAXa.L ` ' L ^ x.Q n y.u.L F g 7 s e d w   d.<X<.1.Z C & : : : ",
"w 5 5 6 6 e i J K ^ S x.JXY.^ B ~ ` W C.^ E [ e.W.~ / B. XHXLXoXtX!.W.C. XeX}.!.S.W.I.|.&XOX!.D.B.N.bX&X$X&X$X@X=X_.`.$XcXqXJ.{ } @.E p.e.a h.<.Q Q M M u f 6 ; :.l.<.5 6 , $ = X X X ",
"; ; 4 5 3 5 6 y a H { A sXn.^ C.^ ` [ Q W...C.$.[ Q C.e.!.c.gXAXtX/.!.bX6XbX&X}.e.G.e.u.4.wXCX@.q.CX.X4XPX'.T.=.*.=.Q.D.I.6X X .=.E ' Z q.Z h.h.H ..b B a m & l l.q.4 4 y = X ; #   # ",
"4 4 5 y w w w e f n Q V.l.xXq.q.[ [ Q [ ^ !.S...o.$...e.^.q.hXcX&X9XBXvXbX}.tX9X/ ^ ^ K..XI.L.E 6.VX&X4X%XL.X.+.*.=.D.} F.^ v.q.{ ] ' -.C 7.n.pXu.<.B B B i C g.1.r e : w X X = $ X = ",
"3 5 6 w i e e a f n a B 0.m.y.K K Q #.[ ^ !.|.K $.$.$.V.I.! hX}.BXbX/.}.mXDX}.e.e.$.$.$.C.$.G., pXqXyX*X_.F.D.Q.&.F.V.*.=.@.l 0.R O. .#.C :XN.u.oX6X8Xe.v 7.z.4.X.s u q q w : X = # # ",
"- 6 6 6 8 7 e e e d M f $.u.z.A  .} ` X.C.OX/.[ / K.A.S.S.0.aXOXqXcX.X!..XbXVXJ.../ / %.#.G.n ( ZX.XPX@X'.F.=.&.=.#.=.*.=.=.a n Y n ' 1 z ,Xe.K ^ ^ c.gXdX>Xc.B.K 4 7 4 8 r : X $ # # ",
"5 5 6 7 7 e u f a d B m D L z.Z B %.' ~ !.OXI.C.D.$.W.W.n s.gXtXOX X}.|.+Xa.LXrXQ / o.^ ) { t 7XnX%X4X^.~.G.=.V.H.*./ =.=./ Q.4 Z ! O n m.].=.=...{ 4.j.jX1X]...r 0 i j 5 + = ; = X X ",
"6 6 7 e u u d d d a N N ` N I.z.< ^ #.~ .X+Xb.} D.S.&.) Z aXMXcXNXoX!./.|.|.oX!.} } $.L.W.E a gXoX#X`.'.D.*.#.F.F.*.#.=.*.&.G.@.u 6.6X<XXXH.X.[ W H $.B.,X,XP.[ s u w e u y 5 = = = = ",
"; 6 u u u d d d g f N f f [ B.N.n f &.S.+XY.U.%.J.S.!.D.w.FXGXbXoXc.}./.!.^.rX.X^.e.^.~.S.g r i.cX_.`._.F.=.=.*.%.%.%.@.F.%.G.D s a fX2X%XG.|  .E H -.<.,Xm.V.A d u e w e 6 ; ; = =   ",
"e e u s d N f d d N J H -.+.o.u.v.* E ..~./ D E Q / / A 5XgXCXxXOX}.u.e.^.|..XU.!.tXBXS.&.g 6 w.xX^.^._...=.=.X.#.$.*.+.F.G.&.s 4 n xX&X_.] G  .f L B 1.M.}.| V f u u u u 5 ; - = = = ",
"6 u u u d f N N g E ` ` Q E { n kXx.l , , a 7 e 9 O q Z hXGXDXBX XbXwXe.I..XwX|.|.!.!.S.&.#.u 1 vX|.R._.A.+.=.#.#.$.+.X.+.=.| 0 7 n.wX%XG.] ]  .' D [ C n.A.#.K f f d u 8 y 5 ; = =   ",
"- e d u s g G ` N E H ' } O.-.a MXxXaXN.9X2XM.6X6XvXvXZXJXKXBXDXrXe.9X X!.e.0X^.S.^ ^ #.W #.s 9 aX!.E._.`.&.+.*.O.#.%.#.&.=.G 0 Z dX%X'.Z.V.#.@.#.[ } 6.XXB.#.L d f d i y e 6 ; = = = ",
"6 u u d M N N d [ ` K X.%.D.u / yXu.kXM.MXmXoX}.XX&XqXFXLXHXSXbXDXI.!..X|.J.Z.C.' %.^ E | *.G 3 6X X#XG.~./.X.#.| O.%.} *.T.d 5 <XxX&XA.@.J.' ] ` @.a v.m.V.%. .N N d u e u w 5 ; ; = ",
"u u e i M N s 5 G ` B Q n n l eX0X{.pXoX+XDXtXu.W.!.$XLXBXSXLXZXDX!.0XDXW.S.#./ #.H ~ -.] ^ #.3 w.qX_.H.#.$X!.W.&.*.+.X.F.=.r ! MX$X@XF.=.D.[ ` ` { a w.,X].Y.X.` N d s u u w 6 5 ; - ",
"6 d f f s s e 5 7 , 2 l x r.,XKX|.R.wX6X|.wX3XGXcXOXNX0XDXUXZXaXR (.BX_.Z.&...{ Q %...' ' Z.H.s 0.eX^._.*.^.$X).(.Z.X.H.T.Z.n b.vX_.=.F.X.-.F.[ { ] d t M.MXu.{ -.V d f d 8 e e 5 - ; ",
"- q t , , * 2 x >.k.m.m.oXcXOXAXW.|.BXZXOX[.I.I.|..X~.NXNX.XS.7XQ ~ (.!.Z. .{ } ' e.#.] Q =.D 9 _ nX X'.G.P.~.(.(.~.H.H.~.[ e.FXOX@XA.@.#.*.O.-.| #.s : v.zX,X,XA W d s d i e q 8 ; , ",
"  , c z :.r.h.,X}.oX@X%X*X&XxXKXxX XwXAXAXxXrXDXCXDX9X(./ d 0.zX6.< Q._.%...%.E E ).{ ] &.=.D 7 a aXOX#XU.L.&.O.#...#.#.G.N 0.lX9X`.Q.L.Z.Z.D.D.D./ M x gXN.].c.n.u.B d s s u w q w 8 ",
"8.f.h.j.I.J.D.+.~.T.H.T.D.|.AXN.aXnXj.xX6X!.$X(.%XQ.U p Z b.HXFX7Xl n E #.| V.S.0XCXW.&.(.M 7 M v hXcXE.Q.F.G.O.| | } } D.G l fXxX=X^.K.*.L.Q.&.=.D 7 v.2X@XL.!.S.m.m.t.m m i 8 q - # ",
"q.q.o.` { ` ~ ^ K { R &.A N.b.@X@XN.nXdXqXZ b Z Q e a b.AXxXCX/.xXw.i 8 g N ' X.Q.).(.W.A.s g 8 w.KXxX`.0XL.[ #.| } -.} G.O.e p.FXcXOXW...M u u U > ^ qX|.E.~.T.J.C.e.k.k.<.q   o % c ",
"M M f d N N ] ]  .C.Q.A r.xX|._.@X X XKXFX7X5Xs.v.7XnXnX Xc.bXR.9XaX! = 7 8 + 9 8 9 9 7 9 D 0 U DXvXmX.X~.D.D.} } W #.` S.&.i Z zXKXKXZXqXc.x.j.x.l.aXXX_.L.@.{ +.X. .{ e.h.5.1 * c 5.",
"> 4 0 0 g f H H ' ' m ^ VX|.U.L._.T.#X|.+XcXxXqXaXlXN.I.U.vX6XI.oXaX6X8X6.T n r v d t v b 1 a DXtX}.mXoX#X~.} | #.X.] -.S.Q.s n gXZXwXwXNXNXcXNXwX,XdXU._.C.L H { H G .. .G ! k.;Xr.C ",
"l k < < n t n A n n z aX XI._.T.&.Z.B.U.~.$X^.@X[.nX6XB.a.vX}.I.fXXX[.+XvXvXnXaX5X5X5XfX5X5XfXwX~.K.N.nXI.@X..#...W./ ) .X(.g m x.ZXtX4X#XT.T.=.=.Y.vX!.T.E { B G V m g f M m m <X7.: ",
"r.0.r.k.<X:Xn.c.c.,XlXfXy.U.{ | @.+.D.[ ~.K.A.H.&.vX6XY.p.9XY.m.vX4X%X`.#X|.cXvXHXLXZXMX9XqXaX{.P.X.p.zXeXU.~.&.A. X0X).BXW.s s 6.gX|.#X_.Q.D.D.O.q.vXc.F.O.] E Q D F d M m p u f.! 6 ",
"8 t :.c.u.^ A S.|.|.2XlXf.S...@.;. .S. .).^.R.&.' s.b.:.v.^ q.vXtXPX#XZ.H.F.U.L.N.GX0X&X=XvX XA R i.gX2XnXaXb.T.F...^.rX) 0 g l ,X X!.K.H.%.D.D.O.} 6XoX ./ L D ` f f f f u u u r.5.; ",
"k 0.r.q.S V ` G C.I.xXm.6Xy.^ J.[  .{ F._.T.&.^.] w.lXaXhX0.fXOX$XT.D.*.| { L.W oXqX%X.XNXqX0.i.vXwXOXc.!.b.6XqXU.0XuXE 0 y Z nXOX.X_._.F.#.+.=.G.W }.xXB.O.E G ` N f d i u u w r.0.8 ",
"<.0.! m f D G G o.u.oX}.+XqXz w./.Z.@.W.(.Z.*.T./ Y HXqXlXLXqX@XQ.J.#.| | +.X.1 aX+X~.!.].ZXaXCXcXOX^.&.e.&.! 5XN.Z { 7 l f.sXOX$X_.E.T.D.%.*.*.$.O.q.M.I.L R H ` G g i u u u 6 <.5.> ",
"Z t u s ` M H W  .a.b.U.^.|.vXT / .XuXrXH.#.T.N m 7XSXDXMXKXwX|.Q.~.H.-.X.F.m Y N.^.%.W.w.lXvXOX}.J.B.A.Q.S.q.v 8Xz.8.s.7XFX2X.X%XD.*.=.%.G.%.#.X.=.V v.I.| ] H ` N f u u u e e x 0.w ",
"5 y 8 s N m B E B.y.Y._.'.@X[.9X6., Q (. .E 4 n oXCXPXyX*XBXZX@X_.I.G.#.o.F.m a.}.C.`.A.r.xX&X|.Q.$.W.^ Z.R.K.R Y dXKXAXcXMXN.yX$X*.*.G.Z.G.%.#.F.-.f p.c.Z.] M ` N d p u y e e k Y 6 ",
"6 e e u M N V ` 0.q.K.=.*._.@X!.xX0.$ U g 3 ( N.NXPXPXPXIX&XSXoX^.U.H.G.K.J.n c.~.G.$.V a.5X|.^.S.A.} &.wX/.I./ <.gXgXtX X6XxX@X_.G.Q.Q.H.F.D.*.=.&.8 i.xXB.` ` G M s d u u e w < :.t ",
"y t q u F f m ^ y.K H E @..._._.!.6Xp.< l s.bXyXPXPXyXyX$X.XeXAX!.G.U.L.Q.q.0.w.d ^ 2 y.HXgX}.!.S.Z.9XCXDXwX/./ h.ZXcX`.^.w.nX[.~.K.G.Q.L.V.D.D.D.^.V 8XFXY...} N f d u u u e 6 2 :.v ",
"X e e s s D A c.q.Q ' #.} { X.P.#Xc.gXpXnXBX*XPX%X'.K.=.P.$X@XAX!.E F.Q.' 1 u.! 9 l b.cXoXVX5XI.C.(.0XCXvXrX^.r z.dX$XS.e.v.hXgX|.!.C.G.L.Z.Z.C.J.A u.7XsX2Xe.K N N f u u u w 3 & 5.b ",
"X 8 w s i I x p.B M ^ &.~ X.@.' Q.U.vXSX+XyXPX_.=.#.*.+.A.J.P.0XaX1 g g Z 0.z.x p.cXtXtXtXOXvX5XbXSXB.6X9X0Xe.n jXb.E 6.M.pXXXnXFXVX|.Y.W.A.}.}.v.aXaX}.I.}.}.t.H i g u 8 p i   c l.v ",
".   $ 9 8 2 6.A E H E | E ..{ C.=.U.nXN.%X$XT.| %.*.X.H.C...~.}.6X5X! e.b.zX5X XcXtXyX$X@XR.!.VXhXnXrX/.}.Q.R 5.fXZX8XvXOX.XtX.X|.eXgXxX!.S.S.e.x.gXcX!.A.q.I.x.1 D g r e a , # ,.-X7.",
",.  #   o 5.z 0 g E &.-.#.Q { +...}.vX}.#XD.+.#.X.| ] $.D.A.^.q.:XHXgXaXvXHXMX&X$X%XQ.F.G.o.@XLXJXFX!.&.qX!.m n.>XmXHX}.DXDX`.yX0X$XoXxXxXY.A.S.t.OXSXU.@.V K e.h.& s u S w o < f.l.5.",
"r.5.C k x.jX- p K H / g H ' ` ' S.oXaX|.~.C.T.#.X.' -.' K._.S.y.lXmXvXcXmXvXqX&X_.F. .W Z.S..XSXvXaXi.q.^ ! x iXqXOXxX.XDXDX0X^.=._.$XoXZXj.&.| } B.5XXXY.#.g m l 7.2 , w   k k.A v q ",
"t x g.<X! f., v M n ).E J +.[ ..S.v.ZXI.~.S.| |  ./ -.| C.P.Z 5XHXp.a.t.aXqX.X_.^./ X...Z.A./.I.!.( 5Xz.h w.hXAXuXqXpXbXDXuXuXuX(.W.Q._.xXdXB.=./ / :.pXj. .` J 0 r 5.l ; c :XZ t - w ",
"; v C l.t g.  > J d 0X/ ` A  .J.1.x.sXOXK./  .O.| ' ' -.D.A w.gXvXbXqXoXFXnXI.*X@XZ.+.$.D.^ /. .).bX! 7XgXSX7XtX$XN.ZXbX(.uXLX0XLXCX).L.+XnXe.n X.&.n y.8.n n v k * :.k.2.<Xl.w t 4 : ",
"y   n ,.t r.z , # # V / / W.W Q u.v.x.OXL.Z.&.} -.} } -.+.x b.bXBXIXIXNX9XcXxX}.#XJ.K...Z.~.C.Z.0X X! ! HXaXyXwX@Xb.lX XuXLXDX).0XSXVX X|.oX6Xq J g t 0.sXm.p.w.d.h.h.<XjXf.V b : + ; ",
"O q C Y v S 8.f.i.x < # u 4 ; + z.zXpXy.J.F.~ #.-. ./ #.p y.vX*XPXPX4XyX$X|.vXVX|..XW.B.D._.{ W.C.A.m _ FX&X0X^.W.!.7XBXLXCXuXuX).W.bXxX`.|.aXR e 9 3 iXsXj.Y.q.K ^ ^ :.sXh.K e q + - ",
"4 < k >.: - < 7.n.n.y.0.q.l l T >X<.pXn. .F./ *.X./ ' ' C dX3X4X%X~.+._.Q.`.|.cXlX+X_.&.L.P.Z.Z.A.=.r w.mX|.W.K./.Z.M.KXCX9XrX9XeXuX^.b.rX@XxX>X7 O z.XXB.-.Q K N s p C x.0.S r 4 ; ; ",
"# o % :.:.7.<.<.m B ~ o.I.].m.,X<X5.fXfXl ^ B.{ M 0 0 n M.eX4X%XX.#.+.G.Z.~.|.oXHXZXe.C.L.H.G.*.X.%.R c.wX!.A.J.9Xn nXZX/.0X0X).VXuX/.9X(.OX X5Xl y.pXq.[ v V f b 7 u v Y 5.b @ 3 $ = ",
"3.>.d.jXr.Y r d B K [ { +.Z.I.!.k.N.hXfXv.w.l l k , 3 0.nX(.PXL.*...*.X.$.K.U.c.vXpXZX0.B.A.&.&.H.E T N.|.~.Z.K.wX( 7XoXW./.!./.CXeX Xs.!.|.9X XzXN.^ A M d b F F r y   :.r.v b - % - ",
"q c ,.g.v 8 8 r y i m G G L { Z.{.U.b.m.XX|.b.b.a.w.i.AX.X#X_.X.*.W D.D.#.D.B.( cXOXwXgX! B *.=.' < w.qX#X*.H.W.@XQ p.c..Xb.).0X0X XrX!. Xa.S.B.>XiX^ M g m b U > , % c ;Xl.k v 6 5 5 ",
"6 y t :.: ; 4 , 8 > 7 u p i V B B.C.I.aX[.@X4X$XtX XFXaX{.#XL.*.X.} D.*...D.Z.w.bX*X*X XVX0.V @.g k 6X.X_.+.Q.W.T.1 p.a./.wX9X).a.rXrX Xa.}. XA 5.jX5Xp.1 v w # k :.l.1.< x 1.v ; X ; ",
"* $ 2 :.v & - y - = 5 7 6 6 u d g X.$.8XXX}.L._.E._.oXaXU.Q.@.G.F.&.#.| X.L.q.p.bX0XyX=X|.nXy.! V w.vX@XK.~.^.{ ~., p.b.e..Xb.).0X7Xe./. X!.eX!.& z.j.a.M.z.<.k.k.! n i + a <.>.< = X ",
"; ; v c $ 7 X # ; 4 6 e e w e r i M ^ u.pXB.X.B.T.L.J.xXoX .=.X.O.#.X.%.G.D.n i.wX&X'.^.|.}.VX7X6.5XcX@XS.^.Z.D.(.a w.a...e.e.(.eXs./ / }.c. Xa.. R n.k t.1XjXg.1 m y - w - < 5.c & X ",
"- * v x # 5 ; 5 $ 5 5 - 6 6 7 7 w n V B.>Xr.Q C.B.W.U.n.N.U.Z.B.%...} X.C.V l vX9X@XR.C.K.^. XGXHXFX|.~.Q.P.K )./.  5.a.{ ^ ) 9XS.R V Q ^ u.!.!.w o f.Z p <.k.Z M : 4 O X - & v >.k - ",
"h & 7.9.* > % = - = X 5 q q e 4 i y n 0.h.x.C A.V.e.S.c.,X!.Q.B.B.F.' G t l x.kXxXI.S.%.D.K. X2XHXxX@XK._.} ) }.~ + 6.N.! H  .a.V U ! j.e.( e./ 5 = z 7.6 S g.l : 6 3 X X X = $ z 2.O ",
"x :.d.k.& o *   # , % X + > + t 5 n B m <.zX0.t q.B.F.}.,Xm.C.V.#.+.a , l ].+Xm.rX*.H.Z.D.T. .s.SX].|.U. .X.).Z.f $ v.M.^ B R ^ M 6.b.B.n a.u.n k . k g.k - 5.C ; 3 $ = - - $ - v 3.x ",
": 2 h v ,.7.. o + # X 3 $ % t 4 q f t : v.jX1X6 r n u v pXfXl r V ; , w.j.U.P.^.xXe.G -.N f v x.qXI._.Z.J C.e.` 8 l ,X<X! g R / t.t.Z F M ^ xXM.n o z :Xx . Y Z ; , $ # : - # , h 3.-X",
"- t * # k :Xg.& o X # * 6 - X 6 6 ; . 0.iXl.M.:Xw.w.8.7.z.zXh.y.1 x h.t. .' [ V.XXw.5 q 1 _ s.6Xt.G.=.' W o.[ g X a.j.h.Y a A S.^ J 9 , b.w.( q . c 1Xz C ,.k :.- - $ = = #   = ; * 2.",
". $ * c >.k k 7.>.* . o = o X # * * 7.n.V S <XiX0.a.m.XXfXsXl.x.fXv.Y.{ -.-.~ o.>XfXc.m.,XxXsXsXu.' { ` U H L + x c.A q.5.a V q.9 1 u = aXs.. o < w.sX<.s ,.3.,.- 6 - X   X % j 5 O ,.",
"% * 3.,.= w , > ,.2.k . . : & . c k.7.8 g v n.r.K n Q [ ^ m.u.V m.6.n ~ u 6 q.M.M.a.I.I.U.B.B.}.c.[ ] g g J i % x.q.f n r.v r S e t - p ( * . T n.2 <.1.8 v g.>.    ; =   % j 1.: . j ",
"x -Xx X X $ : = ; k d.g.,.* & 3.;X2 > b = Z h.v p n n p b y.y.v q.6.< > k i.N.S.B.@.| g M E H q.c.0.B a J P < ! a.v d r <.x a b 1.y e , . # x z.sXy.5 n v v ,.2., $ = : k C S v ; X X ",
"o >.,.o X : ; 3 ;   & 3.-X-X-X-Xq ; - q - 6.r.t 7 8 > m e v y.n n p.l 0.v.u.m A N N N J P a a N y.h.V F i , k h.b i r e :.5.6 7 Z 1 $ . , ,.:.6 sX0.t % : v z d.C t : v 1.1.C .   X   "
};
