/* XPM */
static char *cb869d39d2774a8899af85157830f9478hWMJR3ozXCwumG7[] = {
/* columns rows colors chars-per-pixel */
"23 16 211 2 ",
"   c #10113D",
".  c #1D153E",
"X  c #2B1D3D",
"o  c #241538",
"O  c #311430",
"+  c #3C1C38",
"@  c #34213D",
"#  c #3E243C",
"$  c #39283A",
"%  c #431B2B",
"&  c #4A1A2C",
"*  c #4E172C",
"=  c #541E2C",
"-  c #481C35",
";  c #5B282D",
":  c #4C2037",
">  c #4C2C3A",
",  c #442239",
"<  c #532A33",
"1  c #552238",
"2  c #532839",
"3  c #5B293A",
"4  c #43313F",
"5  c #58313E",
"6  c #643837",
"7  c #6A3638",
"8  c #70393E",
"9  c #111147",
"0  c #1C184A",
"q  c #131850",
"w  c #271D47",
"e  c #321D46",
"r  c #2B1D50",
"t  c #1D214B",
"y  c #1C2B56",
"u  c #22284A",
"i  c #322747",
"p  c #3C2442",
"a  c #302840",
"s  c #312749",
"d  c #372D4F",
"f  c #3C2B4C",
"g  c #3D2B41",
"h  c #3F304D",
"j  c #3C3B43",
"k  c #2B2256",
"l  c #262854",
"z  c #3E2E5F",
"x  c #383550",
"c  c #3C335B",
"v  c #323A5C",
"b  c #33305D",
"n  c #161F62",
"m  c #2E2863",
"M  c #2E3060",
"N  c #393B69",
"B  c #37396C",
"V  c #412546",
"C  c #462D47",
"Z  c #582649",
"A  c #453245",
"S  c #403148",
"D  c #4C314D",
"F  c #453B46",
"G  c #573045",
"H  c #5B3146",
"J  c #573448",
"K  c #5A3B4D",
"L  c #593944",
"P  c #412B52",
"I  c #4A3751",
"U  c #433C56",
"Y  c #4D3C5E",
"T  c #463859",
"R  c #593454",
"E  c #573F59",
"W  c #583A57",
"Q  c #643446",
"!  c #693540",
"~  c #753C43",
"^  c #613558",
"/  c #643B59",
"(  c #703C52",
")  c #413463",
"_  c #443B63",
"`  c #4B3D65",
"'  c #473D6F",
"]  c #543F69",
"[  c #513F65",
"{  c #483E70",
"}  c #463C70",
"|  c #3C4663",
" . c #354C78",
".. c #5C444F",
"X. c #494154",
"o. c #574251",
"O. c #5C4255",
"+. c #574956",
"@. c #5D455A",
"#. c #574956",
"$. c #6E464F",
"%. c #604856",
"&. c #684C53",
"*. c #69475E",
"=. c #6C4A59",
"-. c #674457",
";. c #7C4B54",
":. c #754D5D",
">. c #714859",
",. c #6C5356",
"<. c #65555E",
"1. c #7C5254",
"2. c #73535A",
"3. c #7B515F",
"4. c #474167",
"5. c #4B4464",
"6. c #44456B",
"7. c #4B4B6E",
"8. c #5B4263",
"9. c #544C63",
"0. c #55436A",
"q. c #574B6F",
"w. c #5B4D67",
"e. c #5E516F",
"r. c #484A70",
"t. c #514A77",
"y. c #4E5174",
"u. c #40517C",
"i. c #4C537F",
"p. c #54557B",
"a. c #565477",
"s. c #634664",
"d. c #624C63",
"f. c #6B4B62",
"g. c #744A63",
"h. c #7A4C65",
"j. c #71486A",
"k. c #655461",
"l. c #6B5965",
"z. c #62576E",
"x. c #6C536C",
"c. c #6E5261",
"v. c #715667",
"b. c #705568",
"n. c #7C556B",
"m. c #7E5C6F",
"M. c #7C5864",
"N. c #635474",
"B. c #625F70",
"V. c #62537A",
"C. c #6B507B",
"Z. c #7A5473",
"A. c #775A78",
"S. c #775C70",
"D. c #606175",
"F. c #69637D",
"G. c #776D78",
"H. c #786579",
"J. c #894D4C",
"K. c #824856",
"L. c #8E4850",
"P. c #874859",
"I. c #85545A",
"U. c #9E5F50",
"Y. c #985859",
"T. c #93675E",
"R. c #835E6D",
"E. c #855965",
"W. c #95506D",
"Q. c #875777",
"!. c #A65368",
"~. c #AD5A78",
"^. c #806D67",
"/. c #866168",
"(. c #8C6567",
"). c #996A62",
"_. c #836078",
"`. c #8E637A",
"'. c #816A7B",
"]. c #8A6875",
"[. c #99697F",
"{. c #9B637C",
"}. c #8B767F",
"|. c #987A73",
" X c #A76662",
".X c #A86064",
"XX c #A3716A",
"oX c #CD8674",
"OX c #554B80",
"+X c #445583",
"@X c #525282",
"#X c #585280",
"$X c #545488",
"%X c #525894",
"&X c #764E8A",
"*X c #675C87",
"=X c #675681",
"-X c #7E5F81",
";X c #6D6284",
":X c #696986",
">X c #7D6A89",
",X c #636490",
"<X c #7B6A92",
"1X c #825F89",
"2X c #896980",
"3X c #846589",
"4X c #8C6488",
"5X c #93758D",
"6X c #9A6986",
"7X c #A46D80",
"8X c #A07483",
/* pixels */
"o O s $ 7 8 I N U f.m.+.W 4.T g 4 E # % * n w ",
"3 , < ^ U 5.=.K s.<XF.<.g.7.] ;./ H x d 5 o o ",
"f z =.3.T N g.U.H.m.l.D.3XN.`./.8.Q _ i > > w ",
"X k c ..0.:X5.E.|.5X#.<.4X,Xi.9.c &.d.*.P e 9 ",
"p v B 5.#.N.O.XXG.G.A.+.3X@X+Xr.&.N.Y :.B m q ",
"M x T <.).R.|.oXG.e.9.| V.;Xa.0.h.%X4.$.I i l ",
"h G *.T.7X/.'.(.=.5.q.j m.V.y.x.`.@XE b.d.C X ",
"G 0.w.C.V.].K.M./.%.:.<.`.A.y.4.T.H.E.$X' Y G ",
"R { x.2.r.@XR. X*Xp.R.].n.f.;.2.=Xp.OXw.N m D ",
"u A e.e.2.m.<X5Xp.L =.I.j.V.L..X<Xr.k.1.c M * ",
"a I _ } 3X-Xt.p.I.I.&X3X!.:.Y.H.`.b.,.*.c @ 5 ",
"> ; T 5.;.9. .,.8X[.C.q.,.I.{.~.Q._.Q ] H ! l ",
"- Z T K L.*.t.`.t.N.6X+.-.D.j.!.W.R.h.) C 2 t ",
", t y v 5.b.S.=X+X@.<Xh.n.F.K 9.N.8.6 ~ V A + ",
"& % w 0 , ( g.P.T +.N.k.A.6.( R F D < ; w   1 ",
"- e - - - T I 6 ! O.-.O.0.f J A + V Z = # k O "
};
